<svg width="53" height="53" viewBox="0 0 53 53" fill="none" xmlns="http://www.w3.org/2000/svg">
<path fill-rule="evenodd" clip-rule="evenodd" d="M26.5 0C41.1355 0 53 11.8645 53 26.5C53 41.1355 41.1355 53 26.5 53C11.8645 53 0 41.1355 0 26.5C0 11.8645 11.8645 0 26.5 0ZM26.5 29.5983C24.4736 29.5983 22.8309 31.2412 22.8308 33.2675H26.0923V34.0829H22.8308V35.1021H26.0923V35.9175H22.8308V36.9368H26.0923V37.7521H22.8308V38.6683C21.7726 38.4392 20.8701 38.0877 19.7731 37.7115C17.8883 37.0653 15.777 35.4704 14.2692 34.45L11.0077 41.1769C12.6385 42.4 13.4538 43.2154 16.3077 44.4385C18.8214 45.5158 22.2192 46.2731 25.2769 46.2731C27.895 46.2731 28.5368 46.3033 30.1692 46.041V33.2675C30.1691 31.2412 28.5264 29.5983 26.5 29.5983ZM27.1115 6.93077C23.9284 6.93077 20.7923 7.54231 18.3462 8.76538C16.1038 9.78462 15.0343 11.0401 13.8615 12.4346C12.7307 13.795 11.9836 16.6555 11.9835 18.3561C11.9835 20.0567 12.2923 21.98 13.0462 23.2385C14.3895 25.4808 15.1183 26.1252 16.9192 27.1115C18.9197 28.2071 20.5682 28.7869 23.4789 29.7082C24.276 28.9814 25.3364 28.5385 26.5 28.5385C28.4143 28.5385 30.0477 29.7382 30.6912 31.4265C32.6962 31.6829 34.2462 33.3945 34.2462 35.4692C34.2462 37.2947 33.0463 38.8395 31.3923 39.359V45.8256C33.637 45.3889 36.9703 44.2774 38.9346 41.9923C40.8621 39.75 41.7885 37.1 41.7885 35.0615C41.7885 33.6346 41.565 30.8161 40.7692 29.5577C39.9735 28.2652 38.6189 26.773 36.6923 25.6846C34.8076 24.5962 32.2829 23.7496 28.9462 23.0346C26.0923 22.4231 25.8885 22.2192 24.2577 21.8115H19.6373C19.6308 21.8115 19.6242 21.8106 19.6178 21.8103C18.4619 21.7917 17.5308 20.8872 17.5308 19.7731C17.5308 18.7202 18.3622 17.8537 19.4291 17.7458C19.5046 17.7121 19.5799 17.6829 19.656 17.6582C19.6982 16.1174 21.0117 14.8808 22.6269 14.8808C23.0438 14.8808 23.4405 14.9634 23.8006 15.1121C24.4617 13.5425 26.0633 12.4347 27.9353 12.4346C30.0958 12.4346 31.8972 13.9098 32.3068 15.8681C32.8791 15.5021 33.5662 15.2885 34.3055 15.2885C35.7713 15.2885 37.0323 16.1276 37.5977 17.3325L40.5654 10.8038C38.7308 9.58077 35.9326 8.1543 33.8385 7.74615C31.1885 7.13462 29.7083 6.93077 27.1115 6.93077Z" fill="#F5F5F5"/>
</svg>
